# xmcd CD database file
#
# Track frame offsets:
#	183
#	36953
#	69928
#	95930
#	113610
#	128403
#	149698
#	170513
#	195803
#
# Disc length: 3253 seconds
#
# Revision: 0
# Processed by: cddbd v1.5PL3 Copyright (c) Steve Scherf et al.
# Submitted via: CDex 1.50beta10
#
DISCID=770cb309
DTITLE=Roadside Picnic - For Mad Men Only
DYEAR=1990
DGENRE=Blues
TTITLE0=Sometimes I get very sad
TTITLE1=For mad men only!
TTITLE2=Lonely wolf
TTITLE3=Premotion (Adventures in the magic theatre)
TTITLE4=Song for Elaine
TTITLE5=No Blues
TTITLE6=Victoria Park forever
TTITLE7=The visitation
TTITLE8=Steve at the beach
EXTD=YEAR: 1990
EXTT0=
EXTT1=
EXTT2=
EXTT3=
EXTT4=
EXTT5=
EXTT6=
EXTT7=
EXTT8=
PLAYORDER=
